<?xml version="1.0" encoding="UTF-8"?>
<svg id="Layer_2" data-name="Layer 2" xmlns="http://www.w3.org/2000/svg" viewBox="0 0 58.54 58.68">
  <g id="_Слой_1" data-name="Слой 1">
    <g>
      <g>
        <path d="M17.73,48.65c.28.59.4,1.2.34,1.84-.06.64-.29,1.23-.68,1.78-.4.55-.89.95-1.48,1.21-.59.25-1.2.34-1.85.25-.65-.08-1.26-.34-1.84-.75s-1.01-.92-1.29-1.51c-.28-.59-.4-1.2-.34-1.83.05-.64.28-1.23.69-1.79.4-.56.9-.96,1.48-1.21s1.2-.33,1.85-.25,1.26.33,1.84.75c.58.42,1.01.92,1.29,1.51ZM14.56,47.58c-.42-.05-.83.02-1.23.2-.39.18-.73.46-1,.84-.27.38-.43.78-.48,1.21-.05.43.02.84.2,1.23.18.39.46.72.84.99.38.27.78.44,1.21.48.43.05.84-.02,1.23-.2.39-.18.73-.46,1-.84s.43-.78.48-1.21c.05-.43-.02-.84-.2-1.23-.18-.39-.46-.72-.84-.99-.38-.27-.78-.44-1.21-.48Z"/>
        <path d="M2.04,39.97l6.21-3.24.6,1.15-2.66,1.39,1.67,3.21,2.66-1.39.6,1.15-6.21,3.24-.6-1.15,2.56-1.34-1.67-3.21-2.56,1.34-.6-1.15Z"/>
        <path d="M5.56,30.94l.5,3.46,1.7.45.19,1.33-7.38-2.12-.18-1.27,6.48-4.13.19,1.35-1.5.92ZM4.61,31.51l-2.84,1.74,3.21.86-.38-2.6Z"/>
        <path d="M1.04,21.38l5.12,3.86c.45.34.78.71.97,1.11.19.4.25.82.19,1.25-.05.34-.18.67-.37.99l-.96-.47c.13-.26.2-.48.23-.65.06-.41-.1-.79-.48-1.13l-.15-.13-5.58,1.97.21-1.37,4.38-1.42-3.74-2.73.19-1.27Z"/>
        <path d="M6.67,18.44l-.56,1.17,2.66,1.27-.55,1.15-6.31-3.02.55-1.15,2.64,1.27.58-1.21-1.77-3.08.6-1.25,2.02,3.62,4.33-.68-.63,1.33-3.55.58Z"/>
        <path d="M13.95,11.59l.81.73-3.51,3.91-5.21-4.68,3.41-3.8.81.73-2.54,2.84,1.35,1.21,2.26-2.51.8.71-2.26,2.52,1.44,1.29,2.64-2.94Z"/>
        <path d="M21.01,1.17L26.35.11l.21,1.05-4.09.81.33,1.69,2.03-.4c.82-.16,1.48-.11,1.98.14.5.26.81.71.94,1.36.13.68,0,1.25-.39,1.71-.4.46-1.03.78-1.9.95l-3.09.61-1.36-6.87ZM25.2,6.46c.49-.1.84-.27,1.06-.51.22-.24.29-.54.22-.9-.14-.71-.71-.96-1.71-.76l-1.77.35.43,2.17,1.77-.35Z"/>
        <path d="M34.51,6.4l-.11,1.09-5.22-.52.69-6.97,5.08.51-.11,1.09-3.79-.38-.18,1.81,3.36.33-.11,1.06-3.36-.33-.19,1.92,3.93.39Z"/>
        <path d="M40.83,6.73c.11.36.09.73-.05,1.1-.16.39-.42.68-.79.87-.37.19-.79.27-1.28.26-.49-.01-.98-.12-1.48-.32-.43-.17-.85-.4-1.24-.7s-.72-.63-1-1.02l.74-.73c.21.3.47.58.77.82.31.24.63.43.97.56.49.19.93.26,1.34.2.4-.06.67-.26.8-.6.11-.29.08-.55-.1-.79-.18-.24-.47-.45-.89-.61l-1.52-.6.38-.95,1.42.56c.36.14.67.18.93.11.26-.07.45-.23.55-.48.12-.3.07-.59-.13-.87-.21-.28-.53-.5-.96-.67-.29-.12-.61-.19-.95-.23-.34-.04-.68-.03-1.02.02v-1.13c.41-.05.82-.04,1.23.02s.8.16,1.17.31c.48.19.9.44,1.25.75s.59.65.72,1.02c.13.37.12.74-.02,1.11-.13.32-.33.57-.59.74-.27.17-.58.26-.94.27.34.28.57.6.68.96Z"/>
        <path d="M54.8,15.54c.07.49,0,.93-.18,1.33s-.5.74-.94,1.01c-.43.27-.87.4-1.31.4-.45,0-.87-.14-1.28-.42s-.77-.67-1.09-1.19l-.84-1.34-1.71,1.07-.69-1.1,5.94-3.71,1.53,2.44c.32.51.52,1.02.59,1.5ZM51.88,16.94c.36.12.73.06,1.11-.17.38-.24.59-.54.64-.92s-.08-.8-.38-1.28l-.81-1.29-2.36,1.47.81,1.29c.3.48.63.78.99.9Z"/>
        <path d="M52.51,25.85l-1.05.29-1.39-5.06,6.75-1.85,1.35,4.93-1.05.29-1.01-3.67-1.76.48.9,3.26-1.03.28-.9-3.26-1.86.51,1.05,3.81Z"/>
        <path d="M54.43,29.8l.03-1.3-2.95-.07.03-1.28,7,.17-.03,1.28-2.93-.07-.03,1.34,2.88,2.08-.03,1.38-3.33-2.47-3.67,2.39.04-1.47,3-1.98Z"/>
        <path d="M55.83,41.78l-6.6-2.33.43-1.21,5.56,1.96.92-2.6-1.63-.64c-.91-.36-1.63-.7-2.17-1.02s-.9-.67-1.11-1.04c-.21-.37-.23-.79-.06-1.25.06-.16.17-.37.33-.63l1.04.46c-.05.07-.1.16-.14.27-.13.38,0,.74.4,1.06.4.32,1.08.67,2.05,1.06l2.7,1.06-1.71,4.86Z"/>
        <path d="M46.87,45.39l2.18-2.74-.84-1.55.83-1.05,3.51,6.82-.8,1-7.44-1.89.85-1.06,1.7.46ZM47.94,45.69l3.22.87-1.58-2.93-1.64,2.06Z"/>
        <path d="M38.35,49.65l2.37,3.99.03-4.48.5-.29,3.9,2.08-2.33-3.94,1.06-.63,3.56,6.03-.92.55-4.74-2.58v5.38s-.92.54-.92.54l-3.58-6.02,1.07-.63Z"/>
        <path d="M30.02,58.52l-1.27.15-.82-6.95,1.27-.15.82,6.95ZM31.34,55.41c-.49-.32-.78-.85-.87-1.58-.09-.77.08-1.38.53-1.85.44-.46,1.1-.75,1.99-.86l2.99-.35.82,6.95-1.27.15-.28-2.35-1.93.23c-.83.1-1.5-.01-1.99-.33ZM32.05,52.59c-.25.26-.34.62-.29,1.06.1.84.67,1.2,1.72,1.08l1.66-.2-.31-2.62-1.66.2c-.5.06-.88.22-1.12.48Z"/>
      </g>
      <g>
        <path d="M36.18,28.58c-1.3,0-2.34,1.05-2.34,2.34,0,.31.25.56.56.56s.56-.25.56-.56c0-.67.55-1.23,1.23-1.23.31,0,.56-.25.56-.56,0-.31-.26-.56-.57-.56Z"/>
        <path d="M40,26.97c-.14-.13-.28-.26-.44-.38h0l-2.08-1.76c-.8-.57-1.75-.93-2.78-1l.11.11-1.26-1.27h-.01c-.35-.32-.82-.52-1.33-.52-.88,0-1.62.57-1.88,1.37-.25-.16-.55-.26-.87-.28-.05,0-.11,0-.16,0-.36,0-.69.11-.98.28-.26-.79-1-1.36-1.88-1.36-.51,0-.98.19-1.33.52h-.01l-1.26,1.27.11-.11c-1.03.07-1.99.44-2.78,1l-2.08,1.76h0c-.15.12-.3.24-.44.38-1.04,1-1.68,2.4-1.68,3.96,0,3.04,2.47,5.51,5.51,5.51,2.8,0,5.13-2.11,5.46-4.83.4.23.88.36,1.37.36s.97-.13,1.37-.36c.34,2.71,2.66,4.82,5.46,4.82,3.04,0,5.51-2.47,5.51-5.51,0-1.55-.64-2.96-1.68-3.96ZM22.5,34.69c-2.08,0-3.76-1.68-3.76-3.76s1.68-3.76,3.76-3.76,3.76,1.68,3.76,3.76c0,2.07-1.68,3.76-3.76,3.76ZM29.34,30.42c-.67,0-1.22-.55-1.22-1.22s.55-1.22,1.22-1.22,1.22.55,1.22,1.22-.55,1.22-1.22,1.22ZM36.18,34.69c-2.08,0-3.76-1.68-3.76-3.76s1.68-3.76,3.76-3.76,3.76,1.68,3.76,3.76-1.68,3.76-3.76,3.76Z"/>
        <path d="M22.5,28.58c-1.3,0-2.34,1.05-2.34,2.34,0,.31.25.56.56.56s.56-.25.56-.56c0-.67.55-1.23,1.23-1.23.31,0,.56-.25.56-.56,0-.31-.26-.56-.57-.56Z"/>
      </g>
    </g>
  </g>
</svg>